<svg width="15" height="15" viewBox="0 0 15 15" fill="none" xmlns="http://www.w3.org/2000/svg">
<path fill-rule="evenodd" clip-rule="evenodd" d="M7.07011 0.0400364C6.96243 0.0615687 6.81558 0.10123 6.74379 0.12816C6.672 0.155091 5.32102 0.845885 3.74162 1.66326C0.905774 3.13083 0.866713 3.15231 0.6082 3.38426C0.315717 3.6467 0.142864 3.91767 0.056029 4.24987C-0.0179158 4.53281 -0.0190253 10.4755 0.0548216 10.7572C0.142374 11.091 0.318001 11.3674 0.608331 11.628C0.866681 11.8599 0.906199 11.8816 3.74987 13.3544C5.53176 14.2773 6.71994 14.875 6.86626 14.9222C7.06972 14.9879 7.15744 14.9987 7.49433 15C8.00095 15.0018 8.20046 14.9446 8.84201 14.6135C9.10588 14.4774 10.4084 13.8029 11.7365 13.1147C14.1098 11.8849 14.1558 11.8593 14.4124 11.6281C14.5966 11.462 14.7053 11.3341 14.7818 11.1933C15.0159 10.7622 14.9998 11.0348 14.9998 7.52079C14.9998 4.041 15.0115 4.25248 14.7951 3.84689C14.6727 3.61731 14.3779 3.30427 14.1555 3.16756C13.9262 3.02661 8.51674 0.226405 8.32646 0.150162C7.95719 0.00222277 7.47185 -0.0403138 7.07011 0.0400364ZM7.81074 0.916115C8.0015 0.967745 10.0341 2.02259 10.0002 2.0524C9.9597 2.08795 7.53901 3.34047 7.51075 3.34047C7.48356 3.34047 5.06372 2.08801 5.02162 2.05217C4.99059 2.02573 7.05755 0.950819 7.21696 0.910482C7.3842 0.868151 7.64248 0.870615 7.81074 0.916115ZM5.3235 3.23336C5.96022 3.56427 6.48476 3.84586 6.4891 3.85909C6.4934 3.87235 5.93852 4.17204 5.25602 4.52513C4.1831 5.08013 4.00526 5.16306 3.9427 5.13745C3.85126 5.09999 1.53023 3.89758 1.50089 3.87244C1.48895 3.8622 2.04549 3.56081 2.73772 3.20268C3.94456 2.57827 3.99977 2.55316 4.08106 2.59162C4.12769 2.61365 4.68678 2.90246 5.3235 3.23336ZM12.3003 3.20846C12.984 3.56342 13.5333 3.86235 13.521 3.87273C13.4889 3.89996 11.1876 5.0928 11.0905 5.13258C11.0161 5.16303 10.9034 5.11128 9.76685 4.52451C9.08353 4.17178 8.52786 3.87267 8.53201 3.85982C8.54121 3.83143 11.0106 2.547 11.038 2.55641C11.0486 2.56008 11.6167 2.8535 12.3003 3.20846ZM8.77936 5.02671C9.46353 5.38134 10.0227 5.67837 10.0219 5.68676C10.0197 5.70993 7.55565 6.97808 7.5128 6.97808C7.47182 6.97808 5.10372 5.75927 5.04058 5.70571C5.01115 5.68071 5.12265 5.60981 5.49743 5.41517C5.77014 5.27354 6.33099 4.98097 6.74379 4.76497C7.15659 4.54898 7.50357 4.37443 7.51486 4.37707C7.52612 4.37971 8.09516 4.67204 8.77936 5.02671ZM2.34659 5.33423L3.49688 5.93106V7.24457V8.55807L2.93397 8.26574C2.62439 8.10495 2.05926 7.81215 1.67815 7.61507L0.985266 7.25677L0.984712 5.9411L0.984189 4.62542L1.09024 4.68143C1.14859 4.7122 1.71395 5.00597 2.34659 5.33423ZM14.037 5.944L14.0368 7.25677L13.4904 7.53956C13.1898 7.69513 12.6245 7.98816 12.2342 8.19078L11.5244 8.55921V7.24591V5.93265L12.7726 5.28325C13.4591 4.92608 14.0245 4.63326 14.029 4.63255C14.0334 4.63182 14.037 5.22196 14.037 5.944ZM5.77442 7.11009L7.01979 7.75547L7.02048 9.07012L7.02116 10.3848L6.89879 10.3227C6.83151 10.2886 6.26246 9.99384 5.63429 9.66771L4.49216 9.07478L4.48368 7.75987C4.47898 7.03666 4.4873 6.44939 4.50211 6.45482C4.51693 6.46025 5.08946 6.75513 5.77442 7.11009ZM10.505 9.07801C10.4709 9.10658 8.30939 10.2357 8.07356 10.3481L8.00013 10.3831L8.00111 9.06927L8.00212 7.75547L9.26561 7.10264L10.5291 6.44983L10.5377 7.74667C10.5443 8.76013 10.5372 9.05105 10.505 9.07801ZM2.95016 9.29131L3.49658 9.57428L3.49675 10.8895L3.49688 12.2046L3.39082 12.1472C3.33251 12.1156 2.88094 11.8815 2.38738 11.6269C1.89381 11.3723 1.43027 11.1209 1.35731 11.0683C1.28428 11.0157 1.17424 10.8891 1.11256 10.7868L1.00051 10.601L0.990944 9.43538L0.981383 8.26973L1.69254 8.63903C2.08367 8.84215 2.64961 9.13568 2.95016 9.29131ZM14.0305 9.69162L14.0208 10.601L13.9087 10.7868C13.8471 10.889 13.737 11.0159 13.664 11.0688C13.5579 11.1458 12.9511 11.4676 11.5489 12.1907C11.5354 12.1976 11.5247 11.6118 11.5249 10.8888L11.5254 9.57428L12.7731 8.92778L14.0208 8.28129L14.0305 8.53175C14.0358 8.66951 14.0358 9.19145 14.0305 9.69162ZM5.78114 10.7586L7.00485 11.3968L7.01333 12.7103C7.01819 13.462 7.00951 14.0195 6.993 14.0138C6.97714 14.0084 6.40451 13.7135 5.72047 13.3586L4.47679 12.7132L4.47633 11.4151C4.47594 10.3951 4.48459 10.1173 4.51664 10.1187C4.53909 10.1196 5.1081 10.4075 5.78114 10.7586ZM10.5455 11.4156V12.7143L9.30148 13.3591C8.61728 13.7138 8.04442 14.0084 8.02846 14.0138C8.01172 14.0195 8.00304 13.4677 8.00797 12.7097L8.01645 11.3956L9.24016 10.7586C9.9132 10.4082 10.4822 10.1205 10.5047 10.1192C10.5367 10.1175 10.5455 10.3951 10.5455 11.4156Z" fill="#F4683F"/>
</svg>
