<svg width="17" height="15" viewBox="0 0 17 15" fill="none" xmlns="http://www.w3.org/2000/svg">
<path fill-rule="evenodd" clip-rule="evenodd" d="M12.068 0.00189094C12.0541 0.00340569 12.007 0.00806646 11.9633 0.0122406C11.6233 0.0447084 11.2712 0.163839 10.9847 0.343382C10.6619 0.545591 10.4194 0.805621 10.2431 1.13834C10.1052 1.39862 10.0633 1.56023 10.0378 1.93078C10.0332 1.99763 10.0285 2.42153 10.0263 2.96746L10.0226 3.89105H6.88158H3.7405L3.74066 3.12853C3.74089 2.01197 3.75043 1.82236 3.8154 1.64183C3.84712 1.55372 3.8893 1.48561 3.95904 1.40995C4.10744 1.24894 4.29209 1.127 4.4718 1.07135C4.5714 1.04052 4.62785 1.03192 4.75603 1.02807C4.90347 1.02365 4.97874 1.03347 5.10627 1.07379C5.27257 1.12636 5.41864 1.20902 5.53938 1.31885C5.71481 1.47845 5.78911 1.63582 5.84558 1.96732C5.87484 2.13914 5.91094 2.23703 5.97594 2.32083C6.06099 2.43046 6.18586 2.48244 6.38393 2.49063C6.51516 2.49606 6.58884 2.48636 6.65674 2.45471C6.72325 2.42371 6.8079 2.3593 6.85833 2.30132C6.95013 2.19577 6.95723 2.16666 6.9522 1.91707C6.94754 1.68644 6.92853 1.5677 6.86702 1.38511C6.66058 0.772324 6.11969 0.28236 5.44204 0.0943114C5.2266 0.0345232 5.06617 0.0121035 4.81639 0.00686015C4.608 0.00248724 4.48435 0.0101295 4.35046 0.0356816C3.85269 0.130652 3.39747 0.394568 3.07375 0.775867C2.9806 0.885587 2.89299 1.01858 2.80963 1.17683C2.70934 1.36722 2.68635 1.43683 2.66129 1.62577C2.61419 1.98103 2.60931 2.52014 2.62036 6.15204L2.62875 8.90995L2.67935 8.98049C2.73617 9.05972 2.80763 9.12752 2.88317 9.1739C2.95782 9.21972 3.00201 9.23068 3.1302 9.23515C3.27728 9.24028 3.35325 9.23089 3.42107 9.19919C3.52144 9.15228 3.64107 9.04446 3.6848 8.9615C3.69528 8.94163 3.70726 8.90532 3.71143 8.88082C3.72311 8.81208 3.73192 8.58738 3.74085 8.13036C3.74534 7.90044 3.75055 7.70998 3.75241 7.70712C3.75428 7.70426 5.16416 7.70192 6.8855 7.70192H10.0152L10.0198 7.89554C10.0224 8.00204 10.0277 8.23568 10.0316 8.41474C10.0391 8.7559 10.0459 8.86269 10.0637 8.91954C10.0937 9.01534 10.2349 9.15321 10.3572 9.20597C10.4116 9.22945 10.5065 9.23993 10.6199 9.235C10.8354 9.22563 10.9444 9.1693 11.0684 9.00338C11.1004 8.96047 11.1291 8.92144 11.132 8.91664C11.135 8.91184 11.1451 7.29342 11.1545 5.32016L11.1716 1.73241L11.2411 1.60712C11.3202 1.46433 11.3841 1.37971 11.4705 1.30355C11.7542 1.05346 12.1629 0.966897 12.5375 1.07756C12.7126 1.12928 12.8914 1.24197 13.0094 1.37495C13.1487 1.53188 13.2137 1.68755 13.2599 1.97444C13.3078 2.27277 13.4168 2.41617 13.6389 2.47333C13.6879 2.48593 13.716 2.4882 13.8231 2.4882C13.9686 2.4882 14.0244 2.47765 14.1142 2.43314C14.2076 2.38678 14.3269 2.25429 14.3555 2.16502C14.3727 2.1112 14.3722 1.82936 14.3547 1.7046C14.2964 1.29057 14.1026 0.927438 13.7728 0.614509C13.4187 0.278419 12.9918 0.0794037 12.4869 0.0149685C12.4081 0.00491359 12.1221 -0.00401727 12.068 0.00189094ZM10.0241 5.79648V6.6738H6.88228H3.7405V5.79648V4.91916H6.88228H10.0241V5.79648ZM5.80252 10.0811C5.7131 10.0893 5.64226 10.1193 5.5389 10.1925C5.46008 10.2483 5.41029 10.2909 5.21292 10.4711C5.12407 10.5522 5.02538 10.6397 4.99361 10.6655C4.78115 10.8379 4.41768 10.9965 4.02585 11.0879C3.41493 11.2304 2.73167 11.2087 2.14795 11.0283C1.85952 10.9392 1.6099 10.8199 1.40161 10.6717C1.29498 10.5958 1.15085 10.4631 1.06462 10.3613C0.888035 10.1529 0.789456 10.101 0.537333 10.0834C0.499249 10.0807 0.454383 10.082 0.428996 10.0863C0.327477 10.1038 0.173876 10.2003 0.0919514 10.2982C0.0359988 10.365 0.0157903 10.4042 0.00582328 10.4652C-0.00545102 10.5341 0.000673645 10.7256 0.0153858 10.7641C0.0626931 10.888 0.307839 11.1553 0.569538 11.3684C0.983365 11.7052 1.40795 11.9152 1.96972 12.0607C2.3981 12.1717 2.7031 12.2069 3.23493 12.2068C3.60741 12.2066 3.84993 12.1874 4.08118 12.1397C4.68354 12.0155 5.10932 11.8506 5.57863 11.5598C5.8232 11.4083 5.8467 11.3999 5.92359 11.4364C5.94837 11.4482 5.99789 11.4782 6.03364 11.503C6.31089 11.6958 6.58892 11.8348 6.95567 11.9641C7.3011 12.0859 7.62389 12.1559 7.99455 12.1893C8.18751 12.2067 8.81273 12.2067 9.00569 12.1893C9.25057 12.1672 9.39101 12.1446 9.61238 12.0915C10.1089 11.9724 10.5243 11.7958 10.9088 11.5402C10.9763 11.4953 11.0518 11.4488 11.0765 11.4368C11.1537 11.3993 11.1665 11.4038 11.4108 11.5537C11.583 11.6595 11.6792 11.7127 11.8261 11.7835C12.5943 12.1542 13.5485 12.296 14.4514 12.1736C15.068 12.09 15.6517 11.8895 16.1054 11.6054C16.4428 11.3941 16.8596 11.0041 16.971 10.7954C16.9946 10.7512 17.0032 10.679 16.999 10.5601C16.9947 10.4378 16.9861 10.4046 16.9426 10.3406C16.8582 10.2168 16.7439 10.1352 16.6048 10.0994C16.5261 10.0792 16.3775 10.0794 16.2981 10.0997C16.1849 10.1288 16.1372 10.1621 15.9676 10.3305C15.5661 10.7293 15.3304 10.8775 14.8714 11.0198C14.6429 11.0906 14.4061 11.14 14.1662 11.1669C14.0305 11.182 13.6765 11.188 13.5365 11.1774C13.1083 11.1451 12.7198 11.0447 12.346 10.8697C12.1254 10.7664 12.0493 10.7116 11.7646 10.4511C11.4202 10.1361 11.3268 10.0799 11.1472 10.0798C10.9618 10.0796 10.8781 10.1319 10.4799 10.496C10.2308 10.7238 10.1568 10.7755 9.92656 10.8823C9.4432 11.1065 9.12668 11.1699 8.48929 11.17C8.09597 11.17 7.82713 11.1423 7.58774 11.0769C7.35631 11.0137 7.02039 10.8718 6.85267 10.7664C6.7544 10.7047 6.68185 10.6452 6.48505 10.4647C6.2961 10.2915 6.24899 10.2509 6.17279 10.1957C6.04056 10.0999 5.93922 10.0685 5.80252 10.0811ZM0.436218 12.8701C0.307384 12.8892 0.145015 12.9997 0.0563734 13.1286C0.00555605 13.2024 0.00289817 13.2149 0.00288373 13.3805C0.00286928 13.5234 0.00302095 13.5248 0.0228106 13.5649C0.118732 13.7592 0.47956 14.1087 0.832292 14.349C1.00659 14.4677 1.24173 14.592 1.45512 14.6783C1.72795 14.7886 2.13843 14.8992 2.4383 14.9432C2.7777 14.9929 3.29114 15.007 3.68116 14.9772C3.86436 14.9632 3.95252 14.9508 4.11968 14.9157C4.68745 14.7963 5.12928 14.6232 5.57863 14.3441C5.73033 14.2498 5.8417 14.2069 5.90141 14.2197C5.93245 14.2263 5.9194 14.219 6.07014 14.3136C6.42451 14.536 6.77646 14.7028 7.10071 14.8021C7.50637 14.9264 7.96999 14.9879 8.49938 14.9878C9.24742 14.9875 9.86398 14.8624 10.4213 14.5977C10.5775 14.5235 10.6682 14.4727 10.8766 14.3429C11.0532 14.2329 11.1143 14.1996 11.1398 14.1996C11.1736 14.1996 11.2201 14.222 11.3479 14.3C11.7035 14.5169 11.9167 14.6231 12.2071 14.7278C13.2622 15.1084 14.5129 15.0888 15.5359 14.6757C15.9759 14.4981 16.2958 14.2927 16.6403 13.9666C16.7665 13.8472 16.8644 13.7382 16.9315 13.6425C16.9954 13.5514 16.9966 13.5467 16.997 13.3805C16.9974 13.2141 16.995 13.2028 16.9423 13.1263C16.8724 13.0247 16.7638 12.9404 16.6486 12.8983C16.5672 12.8686 16.5138 12.8606 16.4247 12.8647C16.2476 12.8728 16.1123 12.9474 15.9503 13.1264C15.7841 13.31 15.6049 13.4571 15.4122 13.568C15.0614 13.7701 14.6595 13.8958 14.1914 13.9499C14.0612 13.965 13.6792 13.9709 13.5362 13.9602C13.0931 13.9268 12.662 13.8128 12.2991 13.6333C12.1149 13.5421 12.0203 13.4713 11.7475 13.2201C11.5147 13.0059 11.399 12.9202 11.2915 12.8825C11.2551 12.8697 11.2328 12.8673 11.1508 12.8669C11.0673 12.8665 11.0464 12.8687 11.0057 12.8821C10.8952 12.9183 10.7877 12.9982 10.5307 13.2349C10.2311 13.5109 10.1415 13.5732 9.876 13.6905C9.4801 13.8653 9.23075 13.925 8.80708 13.9466C8.62948 13.9556 8.19666 13.9514 8.05594 13.9392C7.69691 13.9082 7.44071 13.8364 7.06646 13.6618C6.8301 13.5515 6.7556 13.4982 6.46832 13.234C6.11306 12.9073 6.02653 12.8572 5.83141 12.8648C5.76944 12.8672 5.7416 12.8717 5.70485 12.8851C5.59262 12.9262 5.48525 13.0048 5.27167 13.2023C4.96789 13.4832 4.87761 13.5501 4.66686 13.6504C3.80318 14.0612 2.65516 14.0712 1.78562 13.6755C1.48462 13.5384 1.24517 13.362 1.06004 13.1406C0.91374 12.9657 0.811419 12.9019 0.638448 12.8778C0.563558 12.8673 0.477112 12.864 0.436218 12.8701Z" fill="#F4683F"/>
</svg>
