<svg width="18" height="17" viewBox="0 0 18 17" fill="none" xmlns="http://www.w3.org/2000/svg">
<path d="M9.00055 1.32512C11.0363 -0.502684 14.1823 -0.442017 16.1436 1.52272C18.104 3.48832 18.1716 6.61872 16.3481 8.66058L8.99881 16.0203L1.65121 8.66058C-0.172254 6.61872 -0.103787 3.48312 1.85575 1.52272C3.81875 -0.439417 6.95868 -0.505284 9.00055 1.32512ZM14.9164 2.74732C13.6164 1.44558 11.5191 1.39272 10.1584 2.61472L9.00141 3.65298L7.84355 2.61558C6.47855 1.39185 4.38555 1.44558 3.08208 2.74905C1.79075 4.04038 1.72575 6.10738 2.91568 7.47325L8.99968 13.5668L15.0837 7.47411C16.2745 6.10738 16.2095 4.04298 14.9164 2.74732Z" fill="#333333"/>
</svg>
