<svg width="25" height="26" viewBox="0 0 25 26" fill="none" xmlns="http://www.w3.org/2000/svg">
<path d="M14.3993 19.2787L9.15053 16.4162C8.46527 17.1487 7.57551 17.6583 6.59687 17.8785C5.61823 18.0988 4.59597 18.0196 3.66293 17.6512C2.7299 17.2829 1.92923 16.6424 1.36499 15.813C0.80075 14.9836 0.499023 14.0037 0.499023 13.0005C0.499023 11.9974 0.80075 11.0175 1.36499 10.1881C1.92923 9.35873 2.7299 8.71823 3.66293 8.34987C4.59597 7.98151 5.61823 7.90231 6.59687 8.12256C7.57551 8.34281 8.46527 8.85234 9.15053 9.58492L14.4005 6.72242C14.1025 5.54251 14.245 4.2944 14.8013 3.21205C15.3577 2.12969 16.2897 1.28739 17.4226 0.843045C18.5556 0.398696 19.8117 0.3828 20.9555 0.798337C22.0993 1.21387 23.0524 2.03231 23.6359 3.10025C24.2195 4.16818 24.3935 5.41228 24.1254 6.59935C23.8573 7.78642 23.1655 8.83496 22.1796 9.54843C21.1937 10.2619 19.9814 10.5913 18.77 10.4749C17.5586 10.3585 16.4313 9.80431 15.5993 8.91617L10.3493 11.7787C10.5508 12.5804 10.5508 13.4195 10.3493 14.2212L15.598 17.0837C16.43 16.1955 17.5574 15.6413 18.7688 15.5249C19.9802 15.4085 21.1924 15.7379 22.1783 16.4514C23.1642 17.1649 23.8561 18.2134 24.1242 19.4005C24.3923 20.5876 24.2182 21.8317 23.6347 22.8996C23.0511 23.9675 22.0981 24.786 20.9543 25.2015C19.8104 25.617 18.5543 25.6011 17.4214 25.1568C16.2884 24.7124 15.3564 23.8701 14.8001 22.7878C14.2437 21.7054 14.1012 20.4573 14.3993 19.2774V19.2787ZM5.49928 15.4999C6.16232 15.4999 6.79821 15.2365 7.26705 14.7677C7.73589 14.2988 7.99928 13.663 7.99928 12.9999C7.99928 12.3369 7.73589 11.701 7.26705 11.2322C6.79821 10.7633 6.16232 10.4999 5.49928 10.4999C4.83624 10.4999 4.20035 10.7633 3.73151 11.2322C3.26267 11.701 2.99928 12.3369 2.99928 12.9999C2.99928 13.663 3.26267 14.2988 3.73151 14.7677C4.20035 15.2365 4.83624 15.4999 5.49928 15.4999ZM19.2493 7.99992C19.9123 7.99992 20.5482 7.73653 21.017 7.26769C21.4859 6.79884 21.7493 6.16296 21.7493 5.49992C21.7493 4.83688 21.4859 4.20099 21.017 3.73215C20.5482 3.26331 19.9123 2.99992 19.2493 2.99992C18.5862 2.99992 17.9504 3.26331 17.4815 3.73215C17.0127 4.20099 16.7493 4.83688 16.7493 5.49992C16.7493 6.16296 17.0127 6.79884 17.4815 7.26769C17.9504 7.73653 18.5862 7.99992 19.2493 7.99992ZM19.2493 22.9999C19.9123 22.9999 20.5482 22.7365 21.017 22.2677C21.4859 21.7988 21.7493 21.163 21.7493 20.4999C21.7493 19.8369 21.4859 19.201 21.017 18.7322C20.5482 18.2633 19.9123 17.9999 19.2493 17.9999C18.5862 17.9999 17.9504 18.2633 17.4815 18.7322C17.0127 19.201 16.7493 19.8369 16.7493 20.4999C16.7493 21.163 17.0127 21.7988 17.4815 22.2677C17.9504 22.7365 18.5862 22.9999 19.2493 22.9999Z" fill="#F4683F"/>
</svg>
