<svg width="13" height="18" viewBox="0 0 13 18" fill="none" xmlns="http://www.w3.org/2000/svg">
<path fill-rule="evenodd" clip-rule="evenodd" d="M6.31403 0.035651C6.43234 -0.0118837 6.5677 -0.0118837 6.68601 0.035651C7.45949 0.346425 8.15251 0.832699 8.69201 1.31826C9.09359 1.67969 9.42767 2.05667 9.65241 2.38306C10.8975 2.1081 12.0048 2.19511 12.6304 2.306C12.8384 2.34288 12.9902 2.50371 12.9963 2.69351C13.0656 4.88171 12.1576 6.42029 11.5177 7.09366C11.8904 8.64353 11.4219 9.82211 10.6387 10.6556C9.94936 11.3892 9.0347 11.8377 8.29445 12.0601V17.5932C8.29445 17.8179 8.09106 18 7.84015 18H5.15984C4.90894 18 4.70554 17.8179 4.70554 17.5932V12.0601C3.96529 11.8377 3.05063 11.3892 2.36129 10.6556C1.57805 9.82211 1.10963 8.64353 1.48225 7.09366C0.842391 6.42029 -0.0655821 4.88171 0.00374607 2.69351C0.00975945 2.50371 0.161619 2.34288 0.369638 2.306C1.13936 2.16956 2.32558 2.16017 3.51393 2.54064C3.71461 2.21929 4.00061 1.82781 4.35853 1.44247C4.85643 0.906448 5.51841 0.35532 6.31403 0.035651ZM4.32727 2.90543C4.8368 3.25677 5.19497 3.83165 5.36446 4.5322C5.40975 4.71938 5.44227 4.91749 5.461 5.12579C6.37008 3.89142 7.46648 3.14483 8.56006 2.71504C8.62525 2.68942 8.69035 2.66495 8.7553 2.64161C8.58104 2.41761 8.34157 2.15638 8.04789 1.89206C7.60933 1.49735 7.07514 1.1187 6.50208 0.858412C5.95426 1.11785 5.46232 1.52644 5.0571 1.9627C4.74735 2.29617 4.50008 2.63301 4.32727 2.90543ZM4.32184 7.14978C4.61332 6.15536 4.62731 5.32793 4.47646 4.70445C4.30228 3.98452 3.92362 3.57824 3.54421 3.42717C2.6016 3.05187 1.61736 2.99102 0.909804 3.05602C0.94526 4.9073 1.75169 6.1388 2.20212 6.59545C2.80367 6.68471 3.5546 6.86205 4.32184 7.14978ZM2.3313 7.44427C2.09472 8.65165 2.48066 9.519 3.05652 10.1318C3.69026 10.8062 4.57942 11.1964 5.2176 11.3491H7.3621C7.2363 10.2914 6.62265 9.48362 5.80035 8.87019C5.37675 8.55418 4.90121 8.29297 4.41717 8.08119C4.41334 8.07958 4.40955 8.07792 4.40579 8.07622C3.68456 7.7619 2.94522 7.55717 2.3313 7.44427ZM8.2584 11.2048C8.81759 11.001 9.45607 10.6505 9.94348 10.1318C10.5347 9.50264 10.9257 8.60516 10.6484 7.34685C8.51612 7.16644 7.23859 7.94636 6.69983 8.49881C7.49692 9.18001 8.10745 10.072 8.2584 11.2048ZM5.9997 7.98005C6.73748 7.21262 8.34419 6.30384 10.8443 6.54694C11.3018 6.05526 12.0569 4.84372 12.0903 3.05259C11.337 2.97024 10.1473 2.9797 8.92523 3.46C7.56309 3.99534 6.10568 5.13674 5.16631 7.51215C5.45097 7.65114 5.73109 7.80672 5.9997 7.98005ZM7.38586 12.1627H5.61414V13.1559L7.38586 14.3121V12.1627ZM7.38586 15.3188L5.61414 14.1626V14.1837L7.38586 15.9584V15.3188ZM7.38586 17.1791L5.61414 15.4044V17.1864H7.38586V17.1791Z" fill="#F4683F"/>
</svg>
