<svg width="14" height="19" viewBox="0 0 14 19" fill="none" xmlns="http://www.w3.org/2000/svg">
<path d="M0.335938 18.3359C0.335938 16.5678 1.03832 14.8721 2.28856 13.6219C3.5388 12.3716 5.23449 11.6693 7.0026 11.6693C8.77071 11.6693 10.4664 12.3716 11.7166 13.6219C12.9669 14.8721 13.6693 16.5678 13.6693 18.3359H12.0026C12.0026 17.0099 11.4758 15.7381 10.5381 14.8004C9.60046 13.8627 8.32869 13.3359 7.0026 13.3359C5.67652 13.3359 4.40475 13.8627 3.46707 14.8004C2.52939 15.7381 2.0026 17.0099 2.0026 18.3359H0.335938ZM7.0026 10.8359C4.2401 10.8359 2.0026 8.59844 2.0026 5.83594C2.0026 3.07344 4.2401 0.835938 7.0026 0.835938C9.7651 0.835938 12.0026 3.07344 12.0026 5.83594C12.0026 8.59844 9.7651 10.8359 7.0026 10.8359ZM7.0026 9.16927C8.84427 9.16927 10.3359 7.6776 10.3359 5.83594C10.3359 3.99427 8.84427 2.5026 7.0026 2.5026C5.16094 2.5026 3.66927 3.99427 3.66927 5.83594C3.66927 7.6776 5.16094 9.16927 7.0026 9.16927Z" fill="#727488"/>
</svg>
