<svg width="271" height="50" viewBox="0 0 271 50" fill="none" xmlns="http://www.w3.org/2000/svg">
<path d="M24.4327 35.2V45H22.6127V36.726H20.5407V35.2H24.4327ZM30.5487 39.246C31.4541 39.358 32.1447 39.666 32.6207 40.17C33.0967 40.674 33.3347 41.304 33.3347 42.06C33.3347 42.6293 33.1901 43.1473 32.9007 43.614C32.6114 44.0807 32.1727 44.454 31.5847 44.734C31.0061 45.0047 30.2967 45.14 29.4567 45.14C28.7567 45.14 28.0801 45.042 27.4267 44.846C26.7827 44.6407 26.2321 44.3607 25.7747 44.006L26.5587 42.592C26.9134 42.8907 27.3427 43.1287 27.8467 43.306C28.3601 43.474 28.8874 43.558 29.4287 43.558C30.0727 43.558 30.5767 43.4273 30.9407 43.166C31.3141 42.8953 31.5007 42.5313 31.5007 42.074C31.5007 41.6167 31.3234 41.262 30.9687 41.01C30.6234 40.7487 30.0914 40.618 29.3727 40.618H28.4767V39.372L30.7027 36.726H26.2507V35.2H32.9287V36.418L30.5487 39.246ZM42.4823 45.14C41.6983 45.14 40.9983 44.944 40.3823 44.552C39.7663 44.1507 39.281 43.572 38.9263 42.816C38.5717 42.0507 38.3943 41.1453 38.3943 40.1C38.3943 39.0547 38.5717 38.154 38.9263 37.398C39.281 36.6327 39.7663 36.054 40.3823 35.662C40.9983 35.2607 41.6983 35.06 42.4823 35.06C43.2663 35.06 43.9663 35.2607 44.5823 35.662C45.2077 36.054 45.6977 36.6327 46.0523 37.398C46.407 38.154 46.5843 39.0547 46.5843 40.1C46.5843 41.1453 46.407 42.0507 46.0523 42.816C45.6977 43.572 45.2077 44.1507 44.5823 44.552C43.9663 44.944 43.2663 45.14 42.4823 45.14ZM42.4823 43.558C43.1823 43.558 43.733 43.2687 44.1343 42.69C44.545 42.1113 44.7503 41.248 44.7503 40.1C44.7503 38.952 44.545 38.0887 44.1343 37.51C43.733 36.9313 43.1823 36.642 42.4823 36.642C41.7917 36.642 41.241 36.9313 40.8303 37.51C40.429 38.0887 40.2283 38.952 40.2283 40.1C40.2283 41.248 40.429 42.1113 40.8303 42.69C41.241 43.2687 41.7917 43.558 42.4823 43.558ZM51.9022 45.14C51.1182 45.14 50.4182 44.944 49.8022 44.552C49.1862 44.1507 48.7009 43.572 48.3462 42.816C47.9916 42.0507 47.8142 41.1453 47.8142 40.1C47.8142 39.0547 47.9916 38.154 48.3462 37.398C48.7009 36.6327 49.1862 36.054 49.8022 35.662C50.4182 35.2607 51.1182 35.06 51.9022 35.06C52.6862 35.06 53.3862 35.2607 54.0022 35.662C54.6276 36.054 55.1176 36.6327 55.4722 37.398C55.8269 38.154 56.0042 39.0547 56.0042 40.1C56.0042 41.1453 55.8269 42.0507 55.4722 42.816C55.1176 43.572 54.6276 44.1507 54.0022 44.552C53.3862 44.944 52.6862 45.14 51.9022 45.14ZM51.9022 43.558C52.6022 43.558 53.1529 43.2687 53.5542 42.69C53.9649 42.1113 54.1702 41.248 54.1702 40.1C54.1702 38.952 53.9649 38.0887 53.5542 37.51C53.1529 36.9313 52.6022 36.642 51.9022 36.642C51.2116 36.642 50.6609 36.9313 50.2502 37.51C49.8489 38.0887 49.6482 38.952 49.6482 40.1C49.6482 41.248 49.8489 42.1113 50.2502 42.69C50.6609 43.2687 51.2116 43.558 51.9022 43.558ZM61.3222 45.14C60.5382 45.14 59.8382 44.944 59.2222 44.552C58.6062 44.1507 58.1208 43.572 57.7662 42.816C57.4115 42.0507 57.2342 41.1453 57.2342 40.1C57.2342 39.0547 57.4115 38.154 57.7662 37.398C58.1208 36.6327 58.6062 36.054 59.2222 35.662C59.8382 35.2607 60.5382 35.06 61.3222 35.06C62.1062 35.06 62.8062 35.2607 63.4222 35.662C64.0475 36.054 64.5375 36.6327 64.8922 37.398C65.2468 38.154 65.4242 39.0547 65.4242 40.1C65.4242 41.1453 65.2468 42.0507 64.8922 42.816C64.5375 43.572 64.0475 44.1507 63.4222 44.552C62.8062 44.944 62.1062 45.14 61.3222 45.14ZM61.3222 43.558C62.0222 43.558 62.5728 43.2687 62.9742 42.69C63.3848 42.1113 63.5902 41.248 63.5902 40.1C63.5902 38.952 63.3848 38.0887 62.9742 37.51C62.5728 36.9313 62.0222 36.642 61.3222 36.642C60.6315 36.642 60.0808 36.9313 59.6702 37.51C59.2688 38.0887 59.0682 38.952 59.0682 40.1C59.0682 41.248 59.2688 42.1113 59.6702 42.69C60.0808 43.2687 60.6315 43.558 61.3222 43.558ZM73.5472 41.766V42.564H76.6272V43.544H73.5472V45H71.7272V43.544H70.3272V42.564H71.7272V35.2H75.7592C77.0659 35.2 78.0832 35.48 78.8112 36.04C79.5486 36.6 79.9172 37.4167 79.9172 38.49C79.9172 39.554 79.5486 40.366 78.8112 40.926C78.0832 41.486 77.0659 41.766 75.7592 41.766H73.5472ZM78.0832 38.504C78.0832 37.9347 77.8826 37.5007 77.4812 37.202C77.0799 36.894 76.5012 36.74 75.7452 36.74H73.5472V40.296H75.7452C76.4919 40.296 77.0659 40.142 77.4672 39.834C77.8779 39.5167 78.0832 39.0733 78.0832 38.504Z" fill="#444444"/>
<path d="M205.209 35.2V45H203.389V36.726H201.317V35.2H205.209ZM210.219 38.994C211.6 38.994 212.622 39.2647 213.285 39.806C213.948 40.338 214.279 41.066 214.279 41.99C214.279 42.578 214.134 43.11 213.845 43.586C213.556 44.062 213.122 44.44 212.543 44.72C211.964 45 211.25 45.14 210.401 45.14C209.701 45.14 209.024 45.042 208.371 44.846C207.718 44.6407 207.167 44.3607 206.719 44.006L207.489 42.592C207.853 42.8907 208.287 43.1287 208.791 43.306C209.304 43.474 209.832 43.558 210.373 43.558C211.017 43.558 211.521 43.4273 211.885 43.166C212.258 42.8953 212.445 42.5267 212.445 42.06C212.445 41.556 212.244 41.178 211.843 40.926C211.451 40.6647 210.774 40.534 209.813 40.534H207.447L207.951 35.2H213.705V36.726H209.491L209.281 38.994H210.219ZM219.417 45.14C218.633 45.14 217.933 44.944 217.317 44.552C216.701 44.1507 216.216 43.572 215.861 42.816C215.506 42.0507 215.329 41.1453 215.329 40.1C215.329 39.0547 215.506 38.154 215.861 37.398C216.216 36.6327 216.701 36.054 217.317 35.662C217.933 35.2607 218.633 35.06 219.417 35.06C220.201 35.06 220.901 35.2607 221.517 35.662C222.142 36.054 222.632 36.6327 222.987 37.398C223.342 38.154 223.519 39.0547 223.519 40.1C223.519 41.1453 223.342 42.0507 222.987 42.816C222.632 43.572 222.142 44.1507 221.517 44.552C220.901 44.944 220.201 45.14 219.417 45.14ZM219.417 43.558C220.117 43.558 220.668 43.2687 221.069 42.69C221.48 42.1113 221.685 41.248 221.685 40.1C221.685 38.952 221.48 38.0887 221.069 37.51C220.668 36.9313 220.117 36.642 219.417 36.642C218.726 36.642 218.176 36.9313 217.765 37.51C217.364 38.0887 217.163 38.952 217.163 40.1C217.163 41.248 217.364 42.1113 217.765 42.69C218.176 43.2687 218.726 43.558 219.417 43.558ZM232.706 45.14C231.922 45.14 231.222 44.944 230.606 44.552C229.99 44.1507 229.505 43.572 229.15 42.816C228.795 42.0507 228.618 41.1453 228.618 40.1C228.618 39.0547 228.795 38.154 229.15 37.398C229.505 36.6327 229.99 36.054 230.606 35.662C231.222 35.2607 231.922 35.06 232.706 35.06C233.49 35.06 234.19 35.2607 234.806 35.662C235.431 36.054 235.921 36.6327 236.276 37.398C236.631 38.154 236.808 39.0547 236.808 40.1C236.808 41.1453 236.631 42.0507 236.276 42.816C235.921 43.572 235.431 44.1507 234.806 44.552C234.19 44.944 233.49 45.14 232.706 45.14ZM232.706 43.558C233.406 43.558 233.957 43.2687 234.358 42.69C234.769 42.1113 234.974 41.248 234.974 40.1C234.974 38.952 234.769 38.0887 234.358 37.51C233.957 36.9313 233.406 36.642 232.706 36.642C232.015 36.642 231.465 36.9313 231.054 37.51C230.653 38.0887 230.452 38.952 230.452 40.1C230.452 41.248 230.653 42.1113 231.054 42.69C231.465 43.2687 232.015 43.558 232.706 43.558ZM242.126 45.14C241.342 45.14 240.642 44.944 240.026 44.552C239.41 44.1507 238.925 43.572 238.57 42.816C238.215 42.0507 238.038 41.1453 238.038 40.1C238.038 39.0547 238.215 38.154 238.57 37.398C238.925 36.6327 239.41 36.054 240.026 35.662C240.642 35.2607 241.342 35.06 242.126 35.06C242.91 35.06 243.61 35.2607 244.226 35.662C244.851 36.054 245.341 36.6327 245.696 37.398C246.051 38.154 246.228 39.0547 246.228 40.1C246.228 41.1453 246.051 42.0507 245.696 42.816C245.341 43.572 244.851 44.1507 244.226 44.552C243.61 44.944 242.91 45.14 242.126 45.14ZM242.126 43.558C242.826 43.558 243.377 43.2687 243.778 42.69C244.189 42.1113 244.394 41.248 244.394 40.1C244.394 38.952 244.189 38.0887 243.778 37.51C243.377 36.9313 242.826 36.642 242.126 36.642C241.435 36.642 240.885 36.9313 240.474 37.51C240.073 38.0887 239.872 38.952 239.872 40.1C239.872 41.248 240.073 42.1113 240.474 42.69C240.885 43.2687 241.435 43.558 242.126 43.558ZM251.546 45.14C250.762 45.14 250.062 44.944 249.446 44.552C248.83 44.1507 248.344 43.572 247.99 42.816C247.635 42.0507 247.458 41.1453 247.458 40.1C247.458 39.0547 247.635 38.154 247.99 37.398C248.344 36.6327 248.83 36.054 249.446 35.662C250.062 35.2607 250.762 35.06 251.546 35.06C252.33 35.06 253.03 35.2607 253.646 35.662C254.271 36.054 254.761 36.6327 255.116 37.398C255.47 38.154 255.648 39.0547 255.648 40.1C255.648 41.1453 255.47 42.0507 255.116 42.816C254.761 43.572 254.271 44.1507 253.646 44.552C253.03 44.944 252.33 45.14 251.546 45.14ZM251.546 43.558C252.246 43.558 252.796 43.2687 253.198 42.69C253.608 42.1113 253.814 41.248 253.814 40.1C253.814 38.952 253.608 38.0887 253.198 37.51C252.796 36.9313 252.246 36.642 251.546 36.642C250.855 36.642 250.304 36.9313 249.894 37.51C249.492 38.0887 249.292 38.952 249.292 40.1C249.292 41.248 249.492 42.1113 249.894 42.69C250.304 43.2687 250.855 43.558 251.546 43.558ZM263.771 41.766V42.564H266.851V43.544H263.771V45H261.951V43.544H260.551V42.564H261.951V35.2H265.983C267.29 35.2 268.307 35.48 269.035 36.04C269.772 36.6 270.141 37.4167 270.141 38.49C270.141 39.554 269.772 40.366 269.035 40.926C268.307 41.486 267.29 41.766 265.983 41.766H263.771ZM268.307 38.504C268.307 37.9347 268.106 37.5007 267.705 37.202C267.304 36.894 266.725 36.74 265.969 36.74H263.771V40.296H265.969C266.716 40.296 267.29 40.142 267.691 39.834C268.102 39.5167 268.307 39.0733 268.307 38.504Z" fill="#444444"/>
<line y1="11.5" x2="240" y2="11.5" stroke="#808080"/>
<rect x="46" width="8" height="23" rx="4" fill="#F4683F"/>
<rect x="232" width="8" height="23" rx="4" fill="#F4683F"/>
</svg>
