<svg width="14" height="18" viewBox="0 0 14 18" fill="none" xmlns="http://www.w3.org/2000/svg">
<path d="M7.00016 0C3.58018 0 0.808594 2.77236 0.808594 6.19234C0.808594 8.79932 4.40748 14.8066 6.1175 17.514C6.30914 17.8167 6.64283 18 7.00078 18C7.35888 17.9992 7.69189 17.8161 7.88293 17.5134C9.59351 14.8054 13.1918 8.79929 13.1918 6.1923C13.1918 2.77236 10.4202 0 7.00016 0ZM7.00016 9.97275C5.06604 9.97275 3.49808 8.40501 3.49808 6.47063C3.49808 4.53647 5.06601 2.96855 7.00016 2.96855C8.93432 2.96855 10.5022 4.53644 10.5022 6.47063C10.5022 8.40501 8.93436 9.97275 7.00016 9.97275Z" fill="#F4683F"/>
</svg>
